<svg width="68" height="68" viewBox="0 0 68 68" fill="none" xmlns="http://www.w3.org/2000/svg">
<g filter="url(#filter0_d_809_7999)">
<circle cx="33" cy="32" r="30" fill="#FFFF00"/>
</g>
<path d="M26.3333 30.3334C26.8055 30.3334 27.2014 30.1737 27.5208 29.8542C27.8403 29.5348 28 29.1389 28 28.6667C28 28.1945 27.8403 27.7987 27.5208 27.4792C27.2014 27.1598 26.8055 27 26.3333 27C25.8611 27 25.4653 27.1598 25.1458 27.4792C24.8264 27.7987 24.6667 28.1945 24.6667 28.6667C24.6667 29.1389 24.8264 29.5348 25.1458 29.8542C25.4653 30.1737 25.8611 30.3334 26.3333 30.3334ZM33 30.3334C33.4722 30.3334 33.868 30.1737 34.1875 29.8542C34.5069 29.5348 34.6667 29.1389 34.6667 28.6667C34.6667 28.1945 34.5069 27.7987 34.1875 27.4792C33.868 27.1598 33.4722 27 33 27C32.5278 27 32.1319 27.1598 31.8125 27.4792C31.493 27.7987 31.3333 28.1945 31.3333 28.6667C31.3333 29.1389 31.493 29.5348 31.8125 29.8542C32.1319 30.1737 32.5278 30.3334 33 30.3334ZM39.6667 30.3334C40.1389 30.3334 40.5347 30.1737 40.8542 29.8542C41.1736 29.5348 41.3333 29.1389 41.3333 28.6667C41.3333 28.1945 41.1736 27.7987 40.8542 27.4792C40.5347 27.1598 40.1389 27 39.6667 27C39.1944 27 38.7986 27.1598 38.4792 27.4792C38.1597 27.7987 38 28.1945 38 28.6667C38 29.1389 38.1597 29.5348 38.4792 29.8542C38.7986 30.1737 39.1944 30.3334 39.6667 30.3334ZM16.3333 48.6667V18.6667C16.3333 17.75 16.6597 16.9653 17.3125 16.3125C17.9653 15.6598 18.75 15.3334 19.6667 15.3334H46.3333C47.25 15.3334 48.0347 15.6598 48.6875 16.3125C49.3403 16.9653 49.6667 17.75 49.6667 18.6667V38.6667C49.6667 39.5834 49.3403 40.3681 48.6875 41.0209C48.0347 41.6737 47.25 42 46.3333 42H23L16.3333 48.6667ZM21.5833 38.6667H46.3333V18.6667H19.6667V40.5417L21.5833 38.6667Z" fill="black"/>
<defs>
<filter id="filter0_d_809_7999" x="0" y="0" width="68" height="68" filterUnits="userSpaceOnUse" color-interpolation-filters="sRGB">
<feFlood flood-opacity="0" result="BackgroundImageFix"/>
<feColorMatrix in="SourceAlpha" type="matrix" values="0 0 0 0 0 0 0 0 0 0 0 0 0 0 0 0 0 0 127 0" result="hardAlpha"/>
<feOffset dx="1" dy="2"/>
<feGaussianBlur stdDeviation="2"/>
<feComposite in2="hardAlpha" operator="out"/>
<feColorMatrix type="matrix" values="0 0 0 0 0 0 0 0 0 0 0 0 0 0 0 0 0 0 0.1 0"/>
<feBlend mode="normal" in2="BackgroundImageFix" result="effect1_dropShadow_809_7999"/>
<feBlend mode="normal" in="SourceGraphic" in2="effect1_dropShadow_809_7999" result="shape"/>
</filter>
</defs>
</svg>
