<svg width="68" height="68" viewBox="0 0 68 68" fill="none" xmlns="http://www.w3.org/2000/svg">
<g filter="url(#filter0_d_809_7987)">
<circle cx="33" cy="32" r="30" fill="white"/>
</g>
<path d="M50.5 25.5L46.3333 27.7917L42.1667 31.75V45.3333H48C49.3808 45.3333 50.5 44.2142 50.5 42.8333V25.5Z" fill="#4CAF50"/>
<path d="M15.5 25.5L18.5117 26.925L23.8333 31.75V45.3333H18C16.6192 45.3333 15.5 44.2142 15.5 42.8333V25.5Z" fill="#1E88E5"/>
<path d="M42.1667 21.3334L33 28.2084L23.8333 21.3334L23 26.1667L23.8333 31.75L33 38.625L42.1667 31.75L43 26.1667L42.1667 21.3334Z" fill="#E53935"/>
<path d="M15.5 22.2483V25.5L23.8333 31.75V21.3333L21.23 19.3825C20.61 18.9175 19.8567 18.6666 19.0817 18.6666C17.1033 18.6666 15.5 20.27 15.5 22.2483Z" fill="#C62828"/>
<path d="M50.5 22.2483V25.5L42.1667 31.75V21.3333L44.77 19.3825C45.39 18.9175 46.1433 18.6666 46.9183 18.6666C48.8967 18.6666 50.5 20.27 50.5 22.2483Z" fill="#FBC02D"/>
<defs>
<filter id="filter0_d_809_7987" x="0" y="0" width="68" height="68" filterUnits="userSpaceOnUse" color-interpolation-filters="sRGB">
<feFlood flood-opacity="0" result="BackgroundImageFix"/>
<feColorMatrix in="SourceAlpha" type="matrix" values="0 0 0 0 0 0 0 0 0 0 0 0 0 0 0 0 0 0 127 0" result="hardAlpha"/>
<feOffset dx="1" dy="2"/>
<feGaussianBlur stdDeviation="2"/>
<feComposite in2="hardAlpha" operator="out"/>
<feColorMatrix type="matrix" values="0 0 0 0 0 0 0 0 0 0 0 0 0 0 0 0 0 0 0.1 0"/>
<feBlend mode="normal" in2="BackgroundImageFix" result="effect1_dropShadow_809_7987"/>
<feBlend mode="normal" in="SourceGraphic" in2="effect1_dropShadow_809_7987" result="shape"/>
</filter>
</defs>
</svg>
