<svg width="68" height="68" viewBox="0 0 68 68" fill="none" xmlns="http://www.w3.org/2000/svg">
<g filter="url(#filter0_d_809_7985)">
<circle cx="33" cy="32" r="30" fill="#039BE5"/>
</g>
<path d="M32 9C26.9609 9 22.1282 11.0018 18.565 14.565C15.0018 18.1282 13 22.9609 13 28C13 33.0391 15.0018 37.8718 18.565 41.435C22.1282 44.9982 26.9609 47 32 47C37.0391 47 41.8718 44.9982 45.435 41.435C48.9982 37.8718 51 33.0391 51 28C51 22.9609 48.9982 18.1282 45.435 14.565C41.8718 11.0018 37.0391 9 32 9Z" fill="#039BE5"/>
<path d="M34.572 33.036H39.489L40.261 28.041H34.571V25.311C34.571 23.236 35.249 21.396 37.19 21.396H40.309V17.037C39.761 16.963 38.602 16.801 36.412 16.801C31.839 16.801 29.158 19.216 29.158 24.718V28.041H24.457V33.036H29.158V46.765C30.089 46.905 31.032 47 32 47C32.875 47 33.729 46.92 34.572 46.806V33.036Z" fill="white"/>
<defs>
<filter id="filter0_d_809_7985" x="0" y="0" width="68" height="68" filterUnits="userSpaceOnUse" color-interpolation-filters="sRGB">
<feFlood flood-opacity="0" result="BackgroundImageFix"/>
<feColorMatrix in="SourceAlpha" type="matrix" values="0 0 0 0 0 0 0 0 0 0 0 0 0 0 0 0 0 0 127 0" result="hardAlpha"/>
<feOffset dx="1" dy="2"/>
<feGaussianBlur stdDeviation="2"/>
<feComposite in2="hardAlpha" operator="out"/>
<feColorMatrix type="matrix" values="0 0 0 0 0 0 0 0 0 0 0 0 0 0 0 0 0 0 0.1 0"/>
<feBlend mode="normal" in2="BackgroundImageFix" result="effect1_dropShadow_809_7985"/>
<feBlend mode="normal" in="SourceGraphic" in2="effect1_dropShadow_809_7985" result="shape"/>
</filter>
</defs>
</svg>
