<svg width="68" height="68" viewBox="0 0 68 68" fill="none" xmlns="http://www.w3.org/2000/svg">
<g filter="url(#filter0_d_809_8064)">
<circle cx="33" cy="32" r="30" fill="#00ACEE"/>
</g>
<path d="M49.6667 18.665C48.3667 19.4367 45.7583 20.4884 44.225 20.7917C44.18 20.8034 44.1433 20.8184 44.1 20.83C42.745 19.4934 40.8883 18.665 38.8333 18.665C34.6917 18.665 31.3333 22.0234 31.3333 26.165C31.3333 26.3834 31.315 26.785 31.3333 26.9984C25.745 26.9984 21.4917 24.0717 18.4417 20.3317C18.11 21.165 17.965 22.4817 17.965 23.7184C17.965 26.0534 19.79 28.3467 22.6317 29.7684C22.1083 29.9034 21.5317 30 20.9317 30C19.9633 30 18.9383 29.745 18 28.9717C18 29 18 29.0267 18 29.0567C18 32.32 21.4633 34.5417 24.5433 35.16C23.9183 35.5284 22.6583 35.565 22.0433 35.565C21.61 35.565 20.0767 35.3667 19.6667 35.29C20.5233 37.965 23.6133 39.4684 26.5583 39.5217C24.255 41.3284 22.6567 41.9984 17.94 41.9984H16.3333C19.3133 43.9084 23.1083 45.3334 26.9117 45.3334C39.295 45.3334 46.3333 35.895 46.3333 26.9984C46.3333 26.855 46.33 26.555 46.325 26.2534C46.325 26.2234 46.3333 26.195 46.3333 26.165C46.3333 26.12 46.32 26.0767 46.32 26.0317C46.315 25.805 46.31 25.5934 46.305 25.4834C47.6217 24.5334 48.7633 23.3484 49.6667 21.9984C48.4583 22.535 47.1617 22.895 45.8 23.0584C47.19 22.225 49.165 20.2384 49.6667 18.665ZM43 26.9984C43 33.7984 38.0717 40.9967 28.89 41.9034C30.1333 41.0217 31.3333 39.77 31.3333 39.77C31.3333 39.77 26.3333 35.3334 25.9583 29.5367C27.6833 30.0634 29.48 30.3317 31.3333 30.3317H34.6667V26.165C34.67 23.865 36.5333 22 38.8333 22C41.135 22 43 23.865 43 26.1667C43 26.1667 43 26.8667 43 26.9984Z" fill="black"/>
<defs>
<filter id="filter0_d_809_8064" x="0" y="0" width="68" height="68" filterUnits="userSpaceOnUse" color-interpolation-filters="sRGB">
<feFlood flood-opacity="0" result="BackgroundImageFix"/>
<feColorMatrix in="SourceAlpha" type="matrix" values="0 0 0 0 0 0 0 0 0 0 0 0 0 0 0 0 0 0 127 0" result="hardAlpha"/>
<feOffset dx="1" dy="2"/>
<feGaussianBlur stdDeviation="2"/>
<feComposite in2="hardAlpha" operator="out"/>
<feColorMatrix type="matrix" values="0 0 0 0 0 0 0 0 0 0 0 0 0 0 0 0 0 0 0.1 0"/>
<feBlend mode="normal" in2="BackgroundImageFix" result="effect1_dropShadow_809_8064"/>
<feBlend mode="normal" in="SourceGraphic" in2="effect1_dropShadow_809_8064" result="shape"/>
</filter>
</defs>
</svg>
