<svg width="68" height="68" viewBox="0 0 68 68" fill="none" xmlns="http://www.w3.org/2000/svg">
<g filter="url(#filter0_d_919_8163)">
<circle cx="33" cy="32" r="30" fill="#FF5700"/>
</g>
<path d="M36.3333 17C33.5013 17 31.3333 19.3568 31.3333 22V25.3854C27.8047 25.6263 24.6276 26.6419 22.0625 28.1979C21.1315 27.4687 20.0312 27.0521 18.9375 27.0521C17.7266 27.0521 16.5482 27.5143 15.7083 28.4583C14.1133 30.4505 14.2565 33.7057 16.4896 35.3854C16.3854 35.9128 16.3333 36.4466 16.3333 37C16.3333 40.4245 18.4036 43.4062 21.4375 45.4375C24.4713 47.4687 28.5338 48.6667 33 48.6667C37.4661 48.6667 41.5286 47.4687 44.5625 45.4375C47.5963 43.4062 49.6667 40.4245 49.6667 37C49.6667 36.4466 49.5625 35.9128 49.4583 35.3854C51.7305 33.5755 51.9648 30.3398 50.2917 28.4583C49.4518 27.5143 48.2734 27.0521 47.0625 27.0521C45.9687 27.0521 44.8685 27.4687 43.9375 28.1979C41.3724 26.6419 38.1953 25.6263 34.6667 25.3854V22C34.6667 20.9779 35.168 20.3333 36.3333 20.3333C36.8672 20.3333 37.6224 20.6198 38.8854 21.0625C40.0052 21.4531 41.4896 21.8568 43.4167 21.9479C43.9831 22.9766 45.0833 23.6667 46.3333 23.6667C48.1693 23.6667 49.6667 22.1693 49.6667 20.3333C49.6667 18.4974 48.1693 17 46.3333 17C45.1224 17 44.0547 17.638 43.4687 18.6146C41.9909 18.543 40.9492 18.276 39.9792 17.9375C38.8659 17.5469 37.7982 17 36.3333 17ZM46.3333 18.6667C47.3359 18.6667 48 19.3307 48 20.3333C48 21.3359 47.3359 22 46.3333 22C45.3307 22 44.6667 21.3359 44.6667 20.3333C44.6667 19.3307 45.3307 18.6667 46.3333 18.6667ZM33 28.6667C36.8672 28.6667 40.3047 29.7279 42.6875 31.3229C45.0703 32.918 46.3333 34.9232 46.3333 37C46.3333 39.0768 45.0703 41.082 42.6875 42.6771C40.3047 44.2721 36.8672 45.3333 33 45.3333C29.1328 45.3333 25.6953 44.2721 23.3125 42.6771C20.9297 41.082 19.6667 39.0768 19.6667 37C19.6667 34.9232 20.9297 32.918 23.3125 31.3229C25.6953 29.7279 29.1328 28.6667 33 28.6667ZM18.9896 28.7187C19.543 28.7187 20.1289 28.8359 20.6562 29.1354C19.0482 30.3724 17.7982 31.8958 17.0625 33.6146C16.0924 32.4687 16.112 30.6523 16.9583 29.5521C17.4531 28.9922 18.2018 28.7187 18.9896 28.7187ZM47.0104 28.7187C47.7982 28.7187 48.5469 28.9922 49.0417 29.5521C49.862 30.4766 49.9271 32.293 48.9375 33.5625C48.2018 31.8568 46.9388 30.3659 45.3437 29.1354C45.8711 28.8359 46.457 28.7187 47.0104 28.7187ZM28 32C26.6198 32 25.5 33.1198 25.5 34.5C25.5 35.8802 26.6198 37 28 37C29.3802 37 30.5 35.8802 30.5 34.5C30.5 33.1198 29.3802 32 28 32ZM38 32C36.6198 32 35.5 33.1198 35.5 34.5C35.5 35.8802 36.6198 37 38 37C39.3802 37 40.5 35.8802 40.5 34.5C40.5 33.1198 39.3802 32 38 32ZM39.8229 39.3437C38.3255 40.6784 35.832 41.4792 33 41.4792C30.168 41.4792 27.6745 40.6654 26.1771 39.5C27.0104 41.668 29.6667 43.6667 33 43.6667C36.3333 43.6667 38.9896 41.6745 39.8229 39.3437Z" fill="white" stroke="black" stroke-opacity="0.25"/>
<defs>
<filter id="filter0_d_919_8163" x="0" y="0" width="68" height="68" filterUnits="userSpaceOnUse" color-interpolation-filters="sRGB">
<feFlood flood-opacity="0" result="BackgroundImageFix"/>
<feColorMatrix in="SourceAlpha" type="matrix" values="0 0 0 0 0 0 0 0 0 0 0 0 0 0 0 0 0 0 127 0" result="hardAlpha"/>
<feOffset dx="1" dy="2"/>
<feGaussianBlur stdDeviation="2"/>
<feComposite in2="hardAlpha" operator="out"/>
<feColorMatrix type="matrix" values="0 0 0 0 0 0 0 0 0 0 0 0 0 0 0 0 0 0 0.1 0"/>
<feBlend mode="normal" in2="BackgroundImageFix" result="effect1_dropShadow_919_8163"/>
<feBlend mode="normal" in="SourceGraphic" in2="effect1_dropShadow_919_8163" result="shape"/>
</filter>
</defs>
</svg>
