<?xml version="1.0" encoding="iso-8859-1"?>
<!-- Uploaded to: SVG Repo, www.svgrepo.com, Generator: SVG Repo Mixer Tools -->
<!DOCTYPE svg PUBLIC "-//W3C//DTD SVG 1.1//EN" "http://www.w3.org/Graphics/SVG/1.1/DTD/svg11.dtd">
<svg fill="#000000" height="800px" width="800px" version="1.1" id="Capa_1" xmlns="http://www.w3.org/2000/svg" xmlns:xlink="http://www.w3.org/1999/xlink" 
	 viewBox="0 0 268.051 268.051" xml:space="preserve">
<g>
	<path d="M263.051,111.477h-15.207V98.025c0-2.761-2.238-5-5-5H25.207c-2.762,0-5,2.239-5,5v13.452H5c-2.762,0-5,2.239-5,5v27.227
		c0,13.899,11.308,25.207,25.207,25.207c2.762,0,5-2.239,5-5v-2.382c33.85,8.949,68.756,13.498,103.818,13.498
		s69.969-4.549,103.818-13.498v2.382c0,2.761,2.238,5,5,5c13.899,0,25.207-11.308,25.207-25.207v-27.227
		C268.051,113.716,265.813,111.477,263.051,111.477z M20.207,158.066C14.271,155.993,10,150.338,10,143.704v-22.227h10.207v33.529
		V158.066z M134.025,165.025c-35.081,0-70.007-4.655-103.818-13.835v-34.713v-13.452h207.637v13.452v34.713
		C204.032,160.371,169.106,165.025,134.025,165.025z M258.051,143.704c0,6.634-4.271,12.29-10.207,14.362v-3.06v-33.529h10.207
		V143.704z"/>
</g>
</svg>